<?xml version="1.0" encoding="utf-8"?>
<!-- Generator: Adobe Illustrator 19.0.0, SVG Export Plug-In . SVG Version: 6.00 Build 0)  -->
<svg version="1.1" id="Layer_1" xmlns="http://www.w3.org/2000/svg" xmlns:xlink="http://www.w3.org/1999/xlink" x="0px" y="0px"
	 viewBox="0 0 172.7 36.4" style="enable-background:new 0 0 172.7 36.4;" xml:space="preserve">
<g id="XMLID_1_">
	<g id="XMLID_130_">
		<path id="XMLID_148_" d="M16.3,11.7L15.8,8c3.3-0.6,6.4-0.9,9.4-0.9c2.5,0,4.3,0.5,5.4,1.5c1.2,1,1.8,2.7,1.8,5.2v12h-4.3L27.6,23
			c-1.8,2.1-4.1,3.2-6.7,3.2c-1.7,0-3.2-0.5-4.3-1.4c-1.1-0.9-1.6-2.2-1.6-3.9v-1.8c0-1.4,0.5-2.6,1.5-3.4s2.3-1.2,4.1-1.2H27v-0.8
			c0-0.9-0.2-1.5-0.6-1.9c-0.4-0.3-1.2-0.5-2.3-0.5C22,11.4,19.4,11.5,16.3,11.7z M20.3,19.6v0.7c0,1.3,0.7,1.9,2.1,1.9
			c1.4,0,3-0.6,4.6-1.8v-2.5h-4.9C20.9,17.9,20.3,18.4,20.3,19.6z"/>
		<path id="XMLID_145_" d="M41.3,7.6l0.4,2.7c0.8-0.9,1.8-1.7,3.1-2.2c1.3-0.6,2.7-0.9,4.1-0.9c4.2,0,6.3,3.2,6.3,9.7
			c0,3.5-0.6,5.9-1.7,7.3c-1.1,1.4-2.9,2.1-5.3,2.1c-2.5,0-4.5-0.6-6.1-1.8c0.1,1.3,0.2,2.6,0.1,3.9v4.4h-5.4V7.6H41.3z M42.3,13.2
			v8.3c1.9,0.5,3.3,0.7,4.1,0.7c1.2,0,2.1-0.3,2.5-1s0.7-2.1,0.7-4.3c0-2.1-0.2-3.6-0.6-4.3c-0.4-0.7-1.2-1.1-2.2-1.1
			C45.6,11.4,44.1,12,42.3,13.2z"/>
		<path id="XMLID_142_" d="M78.6,21.9V31H75l-0.4-5.2H61L60.7,31h-3.6v-9.1h2.3c1.1-2.8,1.8-6.1,2.2-9.8c0.3-2.9,2-4.4,5.2-4.4h8.9
			v14.3H78.6z M70.6,21.9V11.3h-2.4c-1.1,0-1.7,0.6-1.8,1.7c-0.4,3.6-1.2,6.6-2.2,8.8H70.6z"/>
		<path id="XMLID_140_" d="M99.3,7.6l-6.4,18.4c-1,3-2.6,5.1-5,6.3c-1.8,1-4.3,1.3-7.4,0.7l0.4-3.6c2.2,0.1,3.8-0.2,4.8-0.7
			c1-0.6,1.7-1.5,2.3-2.9h-1c-0.9,0-1.5-0.4-1.8-1.3L79.2,7.6H85l3.4,11.8c0.3,1.1,0.5,2,0.6,2.7h0.4c0.4-1.4,0.6-2.3,0.7-2.7
			l3.4-11.8H99.3z"/>
		<path id="XMLID_138_" d="M102.4,20.2h1.5c0.7,0,1.2,0.1,1.5,0.4s0.4,0.8,0.4,1.5v1.8c0,0.7-0.1,1.2-0.4,1.5
			c-0.3,0.3-0.8,0.4-1.5,0.4h-1.5c-0.7,0-1.2-0.1-1.5-0.4c-0.3-0.3-0.4-0.8-0.4-1.5v-1.8c0-0.7,0.1-1.2,0.4-1.5
			S101.7,20.2,102.4,20.2z"/>
		<path id="XMLID_135_" d="M114.4,7.6l0.4,2.7c0.8-0.9,1.8-1.7,3.1-2.2c1.3-0.6,2.7-0.9,4.1-0.9c4.2,0,6.3,3.2,6.3,9.7
			c0,3.5-0.6,5.9-1.7,7.3c-1.1,1.4-2.9,2.1-5.3,2.1c-2.5,0-4.5-0.6-6.1-1.8c0.1,1.3,0.2,2.6,0.1,3.9v4.4H110V7.6H114.4z M115.4,13.2
			v8.3c1.9,0.5,3.3,0.7,4.1,0.7c1.2,0,2.1-0.3,2.5-1s0.7-2.1,0.7-4.3c0-2.1-0.2-3.6-0.6-4.3c-0.4-0.7-1.2-1.1-2.2-1.1
			C118.7,11.4,117.2,12,115.4,13.2z"/>
		<path id="XMLID_131_" d="M146.1,0v7.2c3.5,0.2,6.1,1.1,7.6,2.6s2.3,3.8,2.3,7c0,3.1-0.8,5.4-2.3,6.9s-4,2.3-7.6,2.5v6.6h-4.9v-6.6
			c-3.5-0.2-6.1-1.1-7.6-2.5c-1.5-1.4-2.3-3.7-2.3-6.9c0-3.2,0.8-5.5,2.3-7c1.5-1.5,4-2.3,7.6-2.6V0H146.1z M141.5,22.2V11.1
			c-1.8,0.2-3.1,0.7-3.8,1.5s-1,2.2-1,4.1c0,1.9,0.3,3.3,1,4.1S139.6,22,141.5,22.2z M145.9,11.1v11.1c1.8-0.2,3.1-0.7,3.8-1.4
			c0.7-0.8,1-2.1,1-4.1c0-1.9-0.4-3.3-1-4.1C149,11.8,147.8,11.3,145.9,11.1z"/>
	</g>
</g>
</svg>
