<?xml version="1.0" encoding="utf-8"?>
<!-- Generator: Adobe Illustrator 19.0.0, SVG Export Plug-In . SVG Version: 6.00 Build 0)  -->
<svg version="1.1" id="Layer_1" xmlns="http://www.w3.org/2000/svg" xmlns:xlink="http://www.w3.org/1999/xlink" x="0px" y="0px"
	 viewBox="0 0 50 50" style="enable-background:new 0 0 50 50;" xml:space="preserve">
<style type="text/css">
	.st0{fill:none;stroke:#000000;stroke-width:3;stroke-miterlimit:10;}
</style>
<g>
	<path d="M24.5,22l3.2,1.1c1.3,0.5,2.3,1.1,2.8,1.9s0.8,1.9,0.8,3.2c0,1.9-0.4,3.1-1.3,3.9c-0.9,0.7-2.3,1.1-4.5,1.1L25.4,36h-2.8
		l0.3-2.8c-1.2-0.1-2.4-0.3-3.8-0.6l0.3-2.8c2.8,0.1,4.7,0.1,5.7,0.1s1.7-0.1,2-0.3c0.3-0.2,0.5-0.6,0.5-1.3c0-0.6-0.1-1-0.4-1.3
		c-0.2-0.2-0.7-0.5-1.3-0.7l-3.4-1.2c-1.3-0.5-2.2-1.1-2.7-1.9S19,21.3,19,20c0-1.3,0.2-2.3,0.6-3s1-1.2,1.8-1.4
		c0.8-0.3,2-0.4,3.4-0.4l0.2-2.3h2.8l-0.3,2.4c1.2,0.1,2.3,0.3,3.3,0.6l-0.2,2.6c-1.5-0.1-3.3-0.1-5.4-0.1c-1,0-1.7,0.1-2,0.3
		c-0.3,0.2-0.5,0.6-0.5,1.3c0,0.6,0.1,1,0.4,1.2C23.3,21.5,23.8,21.8,24.5,22z"/>
</g>
<circle class="st0" cx="25" cy="24.9" r="19"/>
</svg>
