<?xml version="1.0" encoding="utf-8"?>
<!-- Generator: Adobe Illustrator 19.0.0, SVG Export Plug-In . SVG Version: 6.00 Build 0)  -->
<svg version="1.1" id="Layer_1" xmlns="http://www.w3.org/2000/svg" xmlns:xlink="http://www.w3.org/1999/xlink" x="0px" y="0px"
	 viewBox="-207 250 196 294" style="enable-background:new -207 250 196 294;" xml:space="preserve">
<style type="text/css">
	.st0{fill:#E5E5E5;}
</style>
<path id="XMLID_60_" class="st0" d="M-47.8,250h-122.4c-20.3,0-36.8,16.5-36.8,36.8v220.3c0,20.4,16.5,36.9,36.8,36.9h122.3
	c20.3,0,36.8-16.5,36.8-36.8V286.8C-11,266.5-27.5,250-47.8,250z M-109,538.9c-12.2,0-22-9.8-22-22c0-12.2,9.8-22,22-22
	s22,9.8,22,22C-87,529-96.8,538.9-109,538.9z M-35.7,449.1c0,20.3-16.5,36.8-36.8,36.8h-73c-20.3,0-36.8-16.5-36.8-36.8V302.8
	c0-20.3,16.5-36.8,36.8-36.8h73c20.3,0,36.8,16.5,36.8,36.8V449.1z"/>
</svg>
